<svg xmlns="http://www.w3.org/2000/svg" width="60" height="60" viewBox="0 0 60 60" preserveAspectRatio="xMinYMin meet"><title>Amo Vira Lata</title><path d="M60 40.54A19.459 19.459 0 0140.54 60H19.46A19.459 19.459 0 010 40.54V19.46A19.459 19.459 0 0119.46 0h21.08A19.459 19.459 0 0160 19.46z" fill="#ff3581"/><g fill="#d81262"><path d="M35.471 28.172a7.5 7.5 0 00-4.542 1.514 7.563 7.563 0 00-9.892 11.4l9.086 9.086a1.135 1.135 0 001.608 0l9.082-9.086a7.562 7.562 0 00-5.346-12.91zm3.74 11.3l-8.283 8.284-8.282-8.282a5.287 5.287 0 017.476-7.478 1.135 1.135 0 001.608 0 5.288 5.288 0 017.48 7.478zm0 0"/><path d="M25.646 25.232a4.417 4.417 0 003.5-1.882 6.912 6.912 0 001.3-4.13 6.916 6.916 0 00-1.3-4.13 4.412 4.412 0 00-3.5-1.886 4.417 4.417 0 00-3.5 1.882 6.894 6.894 0 00-1.3 4.13 6.912 6.912 0 001.3 4.13 4.417 4.417 0 003.5 1.882zm0-9.748c1.364 0 2.518 1.71 2.518 3.736s-1.154 3.736-2.518 3.736-2.52-1.712-2.52-3.736 1.156-3.736 2.52-3.736zm0 0"/><path d="M36.207 25.232a4.417 4.417 0 003.5-1.882 6.912 6.912 0 001.3-4.13 6.916 6.916 0 00-1.3-4.13 4.412 4.412 0 00-3.5-1.886 4.417 4.417 0 00-3.5 1.882 6.908 6.908 0 00-1.3 4.13 6.912 6.912 0 001.3 4.13 4.417 4.417 0 003.5 1.882zm0-9.748c1.366 0 2.518 1.71 2.518 3.736s-1.154 3.736-2.518 3.736-2.518-1.712-2.518-3.736 1.155-3.736 2.518-3.736zm0 0"/><path d="M49.226 20.134a3.675 3.675 0 00-6.128 0 5.941 5.941 0 00-1.12 3.554 5.947 5.947 0 001.12 3.556 3.675 3.675 0 006.128 0 5.947 5.947 0 001.12-3.556 5.941 5.941 0 00-1.12-3.554zm-3.066 6.478c-1.034 0-1.908-1.34-1.908-2.924s.874-2.924 1.908-2.924 1.908 1.34 1.908 2.924-.872 2.924-1.908 2.924zm0 0"/><path d="M18.76 20.134a3.868 3.868 0 00-3.066-1.646 3.864 3.864 0 00-3.064 1.646 5.941 5.941 0 00-1.12 3.554 5.947 5.947 0 001.12 3.556 3.865 3.865 0 003.064 1.644 3.868 3.868 0 003.061-1.644 5.947 5.947 0 001.12-3.556 5.927 5.927 0 00-1.118-3.554zm-3.066 6.478c-1.034 0-1.908-1.34-1.908-2.924s.869-2.924 1.908-2.924 1.91 1.34 1.91 2.924-.874 2.924-1.91 2.924zm0 0"/></g><g fill="#fff"><path d="M34.5 26.232a7.5 7.5 0 00-4.542 1.516 7.563 7.563 0 00-9.892 11.394l9.086 9.086a1.135 1.135 0 001.608 0l9.086-9.086a7.562 7.562 0 00-5.346-12.91zm3.738 11.3l-8.283 8.284-8.282-8.282a5.287 5.287 0 017.476-7.478 1.135 1.135 0 001.608 0 5.288 5.288 0 017.48 7.478zm0 0"/><path d="M24.676 23.29a4.417 4.417 0 003.5-1.882 6.912 6.912 0 001.3-4.13 6.916 6.916 0 00-1.3-4.13 4.417 4.417 0 00-3.5-1.882 4.417 4.417 0 00-3.5 1.882 6.894 6.894 0 00-1.3 4.13 6.912 6.912 0 001.3 4.13 4.417 4.417 0 003.5 1.882zm0-9.748c1.364 0 2.518 1.71 2.518 3.736s-1.154 3.736-2.518 3.736-2.518-1.712-2.518-3.736 1.152-3.736 2.518-3.736zm0 0"/><path d="M35.238 23.29a4.417 4.417 0 003.5-1.882 6.912 6.912 0 001.3-4.13 6.916 6.916 0 00-1.3-4.13 4.412 4.412 0 00-3.5-1.882 4.417 4.417 0 00-3.5 1.882 6.908 6.908 0 00-1.3 4.13 6.912 6.912 0 001.3 4.13 4.417 4.417 0 003.5 1.882zm0-9.748c1.366 0 2.518 1.71 2.518 3.736s-1.154 3.736-2.518 3.736-2.516-1.712-2.516-3.736 1.152-3.736 2.518-3.736zm0 0"/><path d="M48.254 18.192a3.675 3.675 0 00-6.128 0 5.941 5.941 0 00-1.12 3.554 5.947 5.947 0 001.12 3.556 3.675 3.675 0 006.128 0 5.947 5.947 0 001.12-3.556 5.946 5.946 0 00-1.12-3.554zm-3.064 6.481c-1.034 0-1.908-1.34-1.908-2.924s.874-2.924 1.908-2.924 1.908 1.34 1.908 2.924-.874 2.924-1.908 2.924zm0 0"/><path d="M17.788 18.192a3.862 3.862 0 00-3.064-1.644 3.864 3.864 0 00-3.064 1.646 5.941 5.941 0 00-1.12 3.554 5.947 5.947 0 001.12 3.556 3.865 3.865 0 003.064 1.644 3.868 3.868 0 003.064-1.644 5.947 5.947 0 001.12-3.556 5.947 5.947 0 00-1.12-3.556zm-3.064 6.482c-1.034 0-1.908-1.34-1.908-2.924s.874-2.926 1.908-2.926 1.91 1.34 1.91 2.924-.876 2.926-1.91 2.926zm0 0"/></g></svg>