<svg xmlns="http://www.w3.org/2000/svg" width="60" height="60" viewBox="0 0 60 60" preserveAspectRatio="xMinYMin meet"><title>Criar Portfolio</title><g transform="translate(-141.57 -123.318)"><rect width="60" height="60" rx="22" transform="translate(141.57 123.318)" fill="#f0a202"/><g opacity=".1"><path d="M173.806 136.723v-.015l-.74-.087-.3-.019v.007c-.339-.028-.678-.05-1.015-.053h-.268v2.181h.261a13.224 13.224 0 014.056 25.751 1.035 1.035 0 00-.248.12h-.551a1.09 1.09 0 100 2.18h.055v1.773a1.2 1.2 0 01-1.2 1.2h-4.581a1.2 1.2 0 01-1.2-1.2v-2.808h-2.181v2.808a3.375 3.375 0 002.643 3.293h6.089l.031-.007a3.371 3.371 0 002.58-3.286v-2.278a15.4 15.4 0 00-3.435-29.561z"/><path d="M170.946 164.609h-3.362a1.071 1.071 0 00-.246-.119 13.227 13.227 0 014.232-25.758l.448.01v-1.92l-.081-.257-.366-.014a15.408 15.408 0 00-5.675 29.732v.505h5.047a1.09 1.09 0 100-2.18z"/></g><path d="M173.806 134.954v-.015l-.74-.087-.3-.019v.007c-.339-.028-.678-.05-1.015-.053h-.268v2.181h.261a13.224 13.224 0 014.056 25.751 1.035 1.035 0 00-.248.12h-.551a1.09 1.09 0 100 2.18h.055v1.773a1.2 1.2 0 01-1.2 1.2h-4.581a1.2 1.2 0 01-1.2-1.2v-2.808h-2.181v2.808a3.375 3.375 0 002.643 3.293h6.089l.031-.007a3.371 3.371 0 002.58-3.286v-2.278a15.4 15.4 0 00-3.435-29.561z" fill="#fff"/><path d="M170.946 162.84h-3.362a1.071 1.071 0 00-.246-.119 13.227 13.227 0 014.232-25.758l.448.01v-1.92l-.081-.257-.366-.014a15.408 15.408 0 00-5.675 29.732v.505h5.047a1.09 1.09 0 100-2.18z" fill="#f8d188"/></g></svg>