<svg xmlns="http://www.w3.org/2000/svg" width="60" height="60" viewBox="0 0 60 60" preserveAspectRatio="xMinYMin meet"><title>Fabio Lobo</title><path d="M60 30a30 30 0 10-58.368 9.758l32.128 20A30 30 0 0060 30z" fill="#fc5"/><path d="M7.736 26.926a25.618 25.618 0 1048.732-11.054A30.141 30.141 0 0046.425 4.894 25.617 25.617 0 007.736 26.926z" fill="#f60"/><path d="M32.95 47.627a26.329 26.329 0 016.693-10.322c2.007-1.876 4.535-3.205 7.508-4.856a.359.359 0 01.04-.017s1.057-.442 1.24-.987l.015-.047c.266-.83.752-2.448 1.205-4.506.24-1.755-1.139-1.154-1.139-1.154l-4.275 2.347c-4.729 2.619-4.93.986-4.93.986-.668-2.235 3.517-4.84 3.517-4.84s6.924-4.811 7.048-4.922a2.285 2.285 0 00.69-1.569 21.887 21.887 0 00-.369-4.69s-.309-1.407-2-.454c-1.347.759-3.737 1.749-6.482 3.177a11.756 11.756 0 01-6.019.585c-7.414-1.508-13.364-.408-18.128 2.127a25.786 25.786 0 01-2.895-8.984s-7.94 7.661-7.191 18.321A49.445 49.445 0 001.622 39.75 30.012 30.012 0 0030 59.999a30.291 30.291 0 003.772-.235 51.564 51.564 0 01-.822-12.137z" fill="#248"/><g fill="#fff"><path d="M13.407 21.267a25.172 25.172 0 014.157-2.782 25.786 25.786 0 01-2.892-8.984s-2.807 6.131-1.265 11.766z"/><path d="M50.193 13.048s-.309-1.407-2-.454c-1.347.759-3.737 1.749-6.482 3.177-10.091 5.249-25 16.426-10.729 43.877a32.786 32.786 0 011.965-12.017 26.329 26.329 0 016.7-10.326c2-1.874 4.531-3.205 7.5-4.856a.359.359 0 01.04-.017s1.057-.442 1.24-.987l.015-.047c.266-.83.752-2.448 1.205-4.506.24-1.755-1.139-1.154-1.139-1.154l-4.271 2.346c-4.729 2.619-4.93.986-4.93.986-.668-2.235 3.517-4.84 3.517-4.84s6.924-4.811 7.048-4.922a2.285 2.285 0 00.69-1.569 21.887 21.887 0 00-.369-4.691z"/></g></svg>