<svg xmlns="http://www.w3.org/2000/svg" width="60" height="60" viewBox="0 0 60 60" preserveAspectRatio="xMinYMin meet"><title>FicaOn</title><g transform="translate(-666.42 -1395.942)"><circle cx="30" cy="30" r="30" transform="translate(666.42 1395.942)" fill="#4798d3"/><path d="M679.898 1428.052a16.57 16.57 0 016.08-14.471 2.455 2.455 0 014.019 1.881 2.5 2.5 0 01-.948 1.934 11.7 11.7 0 1014.742-.008 2.479 2.479 0 01-.941-1.926 2.448 2.448 0 013.966-1.926 16.592 16.592 0 11-26.917 14.516zm16.517-21.86a2.445 2.445 0 00-2.445 2.445v11.266a2.446 2.446 0 004.891 0v-11.266a2.445 2.445 0 00-2.446-2.445zm0 0" fill="#fff"/></g></svg>