<svg xmlns="http://www.w3.org/2000/svg" width="30" height="30" viewBox="0 0 30 30" preserveAspectRatio="xMinYMin meet"><title>LinkedIn</title><g transform="translate(-457.513 -73.826)"><circle cx="15" cy="15" r="15" transform="translate(457.513 73.826)" fill="#0084b1"/><path d="M467.144 81.763a1.7 1.7 0 101.693 1.7 1.707 1.707 0 00-1.693-1.7z" fill="#fff"/><rect width="2.927" height="9.43" rx=".468" transform="translate(465.672 86.458)" fill="#fff"/><path d="M476.369 86.217h-.511a2.86 2.86 0 00-2.352 1.229 2.72 2.72 0 00-.157.252h-.026v-1.046a.194.194 0 00-.194-.194h-2.484a.194.194 0 00-.194.194v9.042a.194.194 0 00.194.194h2.538a.194.194 0 00.194-.195v-5.222A1.655 1.655 0 01475 88.808a1.642 1.642 0 011.661 1.642v5.245a.194.194 0 00.194.194h2.545a.194.194 0 00.194-.194v-6.253a3.224 3.224 0 00-3.225-3.225z" fill="#fff"/></g></svg>