<svg xmlns="http://www.w3.org/2000/svg" width="94.284" height="30" viewBox="0 0 94.284 30" preserveAspectRatio="xMinYMin meet"><title>alKteia</title><path d="M11.113 25.348a8.511 8.511 0 01-.346-2.271 6.266 6.266 0 01-2.413 1.9 7.4 7.4 0 01-3.105.669 5.452 5.452 0 01-3.8-1.308A4.261 4.261 0 010 21.032a4.355 4.355 0 011.977-3.759 9.5 9.5 0 015.511-1.384h3.263v-1.85a3.564 3.564 0 00-1.075-2.744 4.445 4.445 0 00-3.136-1 4.907 4.907 0 00-3.112.962 2.86 2.86 0 00-1.233 2.316l-1.8-.015a4.185 4.185 0 011.8-3.361 6.949 6.949 0 014.436-1.421 6.338 6.338 0 014.293 1.361 4.881 4.881 0 011.617 3.8v7.7a9.547 9.547 0 00.5 3.534v.181zm-5.654-1.294a6.04 6.04 0 003.225-.872 5.133 5.133 0 002.068-2.331v-3.579H7.534a8.063 8.063 0 00-4.211.985 2.956 2.956 0 00-1.519 2.624 2.909 2.909 0 001.015 2.271 3.824 3.824 0 002.64.902z" fill="#fff"/><path d="M20.469 25.348H18.65V4.629h1.819z" fill="#fff"/><path d="M23.932 30v-3.173h3.665V3.111h-3.665V0h7.115v30z" fill="#0090d8"/><path d="M33.51 13.267c1.766 0 3.1-.775 3.1-2.882v-4.4c0-4.06 2.293-5.981 6.012-5.981h.96v3.13h-.929c-1.518 0-2.572.712-2.572 2.758v5.206a3.879 3.879 0 01-3.129 3.9 3.832 3.832 0 013.129 3.9v5.175c0 2.045 1.054 2.789 2.572 2.789h.929v3.129h-.96c-3.718 0-6.012-1.952-6.012-6.012v-4.4c0-2.107-1.332-2.882-3.1-2.882z" fill="#0090d8"/><path d="M50.06 4.911v4.165h3.368v1.474H50.06v10.854a3.4 3.4 0 00.489 2.018 1.893 1.893 0 001.631.662 11.234 11.234 0 001.459-.15l.075 1.461a5.877 5.877 0 01-1.924.253 3.21 3.21 0 01-2.692-1.075 5.061 5.061 0 01-.842-3.166V10.55h-2.993V9.076h2.997V4.911z" fill="#fff"/><path d="M63.656 25.648a7.063 7.063 0 01-3.752-1.023 6.965 6.965 0 01-2.608-2.85 8.878 8.878 0 01-.933-4.1v-.647a9.577 9.577 0 01.909-4.226 7.239 7.239 0 012.534-2.955 6.253 6.253 0 013.519-1.075 5.874 5.874 0 014.7 2.023 8.2 8.2 0 011.737 5.526v1.007h-11.61v.346a6.809 6.809 0 001.587 4.609 5.045 5.045 0 003.992 1.842 5.859 5.859 0 002.549-.526 5.65 5.65 0 002.008-1.684l1.128.857a6.565 6.565 0 01-5.76 2.876zm-.331-15.339a4.5 4.5 0 00-3.421 1.489 6.88 6.88 0 00-1.692 4h9.76v-.2a5.969 5.969 0 00-1.338-3.819 4.148 4.148 0 00-3.309-1.47z" fill="#fff"/><path d="M74.201 4.377a1.2 1.2 0 01.331-.859 1.179 1.179 0 01.9-.351 1.2 1.2 0 01.91.351 1.19 1.19 0 01.338.859 1.166 1.166 0 01-.338.852 1.218 1.218 0 01-.91.343 1.192 1.192 0 01-.9-.343 1.18 1.18 0 01-.331-.852zm2.121 20.971h-1.8V9.077h1.8z" fill="#fff"/><path d="M92.364 25.348a8.5 8.5 0 01-.346-2.271 6.27 6.27 0 01-2.414 1.9 7.4 7.4 0 01-3.105.669 5.452 5.452 0 01-3.8-1.308 4.261 4.261 0 01-1.451-3.308 4.355 4.355 0 011.978-3.759 9.5 9.5 0 015.511-1.384h3.264v-1.85a3.566 3.566 0 00-1.075-2.744 4.446 4.446 0 00-3.135-1 4.909 4.909 0 00-3.113.962 2.86 2.86 0 00-1.233 2.316l-1.8-.015a4.184 4.184 0 011.8-3.361 6.95 6.95 0 014.436-1.421 6.339 6.339 0 014.293 1.361 4.885 4.885 0 011.617 3.8v7.7a9.549 9.549 0 00.5 3.534v.181zm-5.654-1.294a6.043 6.043 0 003.226-.872 5.136 5.136 0 002.068-2.331v-3.579h-3.218a8.061 8.061 0 00-4.211.985 2.956 2.956 0 00-1.519 2.624 2.91 2.91 0 001.015 2.271 3.825 3.825 0 002.635.902z" fill="#fff"/></svg>