<svg xmlns="http://www.w3.org/2000/svg" width="1400" height="800" viewBox="0 0 1400 800" preserveAspectRatio="xMinYMin meet"><title>Lone Wolf</title><defs><clipPath id="a"><path fill="#353d49" d="M0 0h1400v800H0z"/></clipPath></defs><path fill="#353d49" d="M0 0h1400v800H0z"/><g clip-path="url(#a)"><g fill="none" stroke="#fff" stroke-linecap="round" stroke-linejoin="round"><g stroke-width="2.96"><path d="M202.665 25.565v-.572"/><path d="M232.552 87.849l.543.571"/><path d="M305.356 46.136h.543"/><path d="M284.166 104.42v-.571"/><path d="M246.58 165.008c.046.279-.509.258-.444-.016"/><path d="M318.94 145.563v.571"/><path d="M282.537 239.847l-.544-.572"/><path d="M125.51 157.562v-.571"/><path d="M24.455 171.276l-.543-.571"/><path d="M54.334 125.564v.572"/><path d="M29.884 51.85v-.572"/><path d="M14.126 35.279l-.543-1.143"/><path d="M0 56.988v-.572"/><path d="M77.697 46.136h.544"/><path d="M62.774 191.185v-1.012"/><path d="M99.351 288.367v-1.012"/><path d="M132.079 466.533h.962"/><path d="M211.003 492.854h-.962"/><path d="M240.848 455.398h-1.925"/><path d="M53.148 455.398v-1.012"/><path d="M47.372 469.569v1.012"/><path d="M63.736 574.85l.963-1.012"/><path d="M13.683 589.023v1.012"/><path d="M486.299 459.448h.962"/><path d="M387.158 294.441v-1.016"/><path d="M323.629 317.724h.967"/><path d="M447.8 68.697l.962 1.012"/><path d="M486.302 41.364v-1.012"/><path d="M519.992 156.767h.963"/><path d="M542.131 208.395h-.963"/><path d="M664.377 89.955h-2.888"/><path d="M583.521 83.881h.963"/><path d="M815.499 153.73l-.962-1.012"/><path d="M871.328 88.943l-.962 1.012"/><path d="M996.462 265.084v-1.012"/><path d="M1035.927 275.207h.963"/><path d="M981.061 313.675h-.963"/><path d="M1026.296 355.18v-1.012"/><path d="M984.911 499.94h0"/><path d="M948.333 483.743h0"/><path d="M906.943 418.955h0"/><path d="M985.874 635.589h-.963"/><path d="M1045.552 525.248h-.962"/><path d="M1138.921 501.964v-1.014"/><path d="M1321.813 636.601h-.962"/><path d="M1357.424 560.678v-1.012"/><path d="M1391.113 584.973v1.012"/><path d="M1335.284 478.681l.963-1.012"/><path d="M1357.424 430.09h.962"/><path d="M1216.889 295.453h-1.925"/><path d="M1129.296 290.392l-.963-1.012"/><path d="M1108.12 337.971l-.963 1.012"/><path d="M1288.118 262.043h-.962"/><path d="M1254.429 240.789h-.962"/><path d="M1340.093 204.346h-.963"/><path d="M1065.767 188.149h0"/><path d="M1126.408 67.684h-.962"/><path d="M1047.478 32.254v1.016"/><path d="M1167.798 20.106l-.963 1.012"/><path d="M1242.878 10.995V9.983"/><path d="M1368.011 57.561h.963"/><path d="M1335.285 8.97l-.963-1.012"/></g><g opacity=".4" stroke-width="2.719"><path d="M1148.203 588.942v.525"/><path d="M1120.76 531.743l-.5-.525"/><path d="M1053.897 570.051h-.5"/><path d="M1073.357 516.525v.525"/><path d="M1107.875 460.884c-.043-.256.467-.237.407.015"/><path d="M1041.421 478.742v-.525"/><path d="M1074.854 392.157l.5.525"/><path d="M1219.058 467.722v.525"/><path d="M1311.867 455.128l.5.525"/><path d="M1284.424 497.109v-.525"/><path d="M1306.878 564.805v.525"/><path d="M1321.348 580.021l.5 1.049"/><path d="M1334.321 560.08v.525"/><path d="M1262.968 570.051h-.5"/><path d="M1276.673 436.844v.93"/><path d="M1243.082 347.597v.93"/><path d="M1213.027 183.978h-.884"/><path d="M1140.541 159.807h.884"/><path d="M1113.138 194.204h1.768"/><path d="M1285.513 194.204v.93"/><path d="M1290.817 181.189v-.93"/><path d="M1275.789 84.505l-.884.93"/><path d="M1321.756 71.49v-.93"/><path d="M887.725 190.485h-.884"/><path d="M978.775 342.019v.93"/><path d="M1037.117 320.637h-.884"/><path d="M923.084 549.332l-.884-.93"/><path d="M887.725 574.433v.93"/><path d="M856.786 468.452h-.884"/><path d="M836.455 421.04h.884"/><path d="M724.19 529.809h2.652"/><path d="M798.442 535.387h-.884"/><path d="M585.407 471.241l.884.93"/><path d="M534.136 530.739l.884-.93"/><path d="M419.22 368.981v.93"/><path d="M382.977 359.683h-.884"/><path d="M433.363 324.356h.884"/><path d="M391.816 286.236v.93"/><path d="M429.827 153.299h0"/><path d="M463.418 168.174h0"/><path d="M501.429 227.672h0"/><path d="M428.944 28.726h.884"/><path d="M374.137 130.058h.884"/><path d="M288.392 151.443v.93"/><path d="M120.437 27.796h.884"/><path d="M87.73 97.52v.93"/><path d="M56.791 75.209v-.93"/><path d="M108.062 172.822l-.884.93"/><path d="M87.73 217.445h-.884"/><path d="M216.79 341.09h1.768"/><path d="M297.232 345.738l.884.93"/><path d="M316.679 302.044l.884-.93"/><path d="M151.375 371.768h.885"/><path d="M182.315 391.288h.884"/><path d="M103.641 424.758h.885"/><path d="M355.573 439.633h0"/><path d="M299.884 550.262h.884"/><path d="M372.369 582.8v-.93"/><path d="M261.872 593.955l.884-.929"/><path d="M192.923 602.322v.93"/><path d="M78.006 559.558h-.884"/><path d="M108.061 604.181l.884.93"/></g></g><path d="M1242.533 890.589H470.549c-221.568-131.821-370.034-373.672-370.034-650.2a755.2 755.2 0 0139.093-240.6h1260.794v765.757a759.281 759.281 0 01-157.869 125.043z" fill="#e5edd4" opacity=".05"/><path d="M321.639-.211h1069.8q4.677 10.382 8.959 20.975V460c-86.915 215.043-297.663 366.769-543.857 366.769-323.849 0-586.381-262.532-586.381-586.38a584.283 584.283 0 0151.479-240.6z" fill="#e5edd4" opacity=".05"/><path d="M1253.217-.211a460.423 460.423 0 0173.214 249.85c0 255.482-207.109 462.591-462.592 462.591S401.248 505.121 401.248 249.639A460.419 460.419 0 01474.462-.211z" fill="#e5edd4" opacity=".05"/><path d="M1141.797-.211a372.36 372.36 0 0195.79 249.85c0 206.416-167.333 373.748-373.749 373.748S490.09 456.055 490.09 249.639A372.359 372.359 0 01585.881-.211z" fill="#e5edd4" opacity=".05"/><path d="M642.684-.211h442.31a332.853 332.853 0 01112.511 249.85c0 184.279-149.387 333.666-333.666 333.666S530.173 433.918 530.173 249.639A332.853 332.853 0 01642.684-.211z" fill="#ebebec"/><path d="M847.809 323.525c-17.791-7-40.42 4.184-45.663 22.57-4.108 14.408 1.363 30.6-4.3 44.467-4.146 10.156-13.833 17.321-24.309 20.57-9.9 3.07-21.25 3.383-28.99 10.271-8.317 7.4-9.483 20.613-5.094 30.845s13.249 17.884 22.649 23.852c17.5 11.112 38.213 17.668 58.909 16.536s41.219-10.393 54.254-26.508c18.635-23.039 19.655-55.9 13.46-84.876-4.346-20.33-13.408-41.848-32.137-50.87" fill="#dfdfe0"/><path d="M758.535 221.747a37.7 37.7 0 017.789 8.321c2.017 3.238 3.1 7.24 2.1 10.923a14.811 14.811 0 01-2.822 5.245c-4.973 6.276-13.555 9.834-21.317 7.865s-13.826-9.977-12.65-17.9c.906-6.1 5.682-11.142 11.313-13.658s12.01-2.832 18.159-2.348" fill="#dfdfe0"/><path d="M736.456 363.612c.773-1.381 2.842-.079 3.745 1.222 4.586 6.609 9.314 13.58 10.224 21.573a11.022 11.022 0 01-.559 5.62c-2.061 4.765-8.857 5.731-13.466 3.34s-7.554-7-10.415-11.336c-2.712-4.108-5.59-8.265-6.726-13.054s-.1-10.458 3.836-13.407 10.85-1.441 12.03 3.338" fill="#dfdfe0"/><path d="M986.519 470.543c6.677-8.512 12.69-18 14.411-28.684s-1.723-22.764-10.706-28.79c-4.612-3.093-10.2-4.353-15.694-5.145-7.88-1.136-16.082-1.409-23.642 1.086s-14.413 8.155-16.683 15.784c-1.988 6.677-.328 13.809.127 20.761a59.424 59.424 0 01-2.09 19.924c-1.811 6.433-4.27 14.512.807 18.858 2.384 2.041 5.737 2.427 8.873 2.558 19.333.81 33.313-1.179 44.6-16.352" fill="#dfdfe0"/><path d="M1085.959 266.847c3.094 10.9 15.182 17.21 26.512 17.411a27.523 27.523 0 007.342-.755c8.224-2.114 14.671-9.586 16-17.972a25.124 25.124 0 00-8.81-22.7c-4.893-4.075-11.064-6.223-17.087-8.289-6.006-2.06-12.654-4.114-18.536-1.724-3.787 1.538-6.636 4.7-9.308 7.8-2.118 2.451-4.341 5.286-4.105 8.517.212 2.9 2.343 5.223 3.984 7.622s2.84 5.708 1.186 8.1" fill="#dfdfe0"/><path d="M1008.314 286.678a46.519 46.519 0 0110.627 13.629c2.281 4.438 3.858 9.4 3.412 14.37s-3.213 9.918-7.741 12.014c-6.947 3.216-15.115-1.061-20.575-6.426-4.7-4.617-8.621-10.434-9.307-16.987s2.608-13.795 8.757-16.159c3.6-1.385 7.612-.995 11.45-.583" fill="#dfdfe0"/><path d="M1043.183 187.74c19.152 1.766 37.815-12.122 44.2-30.263s1.6-39.08-9.786-54.577-28.67-25.938-46.949-31.918c-18.24-5.968-40.861-6.769-53.989 7.23-9.871 10.525-11.383 26.627-8.51 40.768s9.462 27.216 13.994 40.914c1.722 5.2 3.185 10.585 6.138 15.2 5.2 8.137 14.568 12.942 24.1 14.516s19.3.275 28.776-1.576" fill="#dfdfe0"/><path d="M902.013 94.007a58.5 58.5 0 0124.515 30c2.422 6.755 3.369 14.891-.965 20.61-3.057 4.033-8.139 6-13.11 6.944-15.919 3.026-32.436-2.611-46.034-11.424-7.4-4.793-14.435-10.876-17.715-19.057a17.393 17.393 0 01-1.386-8.289 18.955 18.955 0 013.781-8.77c10.531-14.689 32.83-19.3 48.324-9.994" fill="#dfdfe0"/><path d="M1029.278-.201a12.376 12.376 0 01-3.65 6.4 20.947 20.947 0 01-15.495 5.225 28.749 28.749 0 01-15.415-6.078 15.526 15.526 0 01-4.847-5.547z" fill="#dfdfe0"/><path d="M842.411-.201c3.117 8.549 3.677 18.046.649 26.582-3.79 10.682-12.584 18.8-21.825 25.363a70.558 70.558 0 01-15.569 8.757c-21.527 8.186-48.451-2.556-58.431-23.313-5.588-11.622-5.4-25.431-.68-37.39z" fill="#dfdfe0"/><path d="M674.59 102.468c8.058 4.669 11.284 14.565 13.029 23.713.836 4.384 1.479 8.955.337 13.27-1.834 6.931-7.948 11.932-14.388 15.082-4.687 2.292-10.341 3.84-15.024 1.539-6-2.95-7.659-10.7-7.7-17.389a75.148 75.148 0 012.517-19.695c1.134-4.268 2.713-8.551 5.654-11.847s7.491-5.441 11.81-4.515" fill="#dfdfe0"/><path d="M568.201 244.708c5.634-4.231 12.334-5.371 19.3-6.442 6.656-1.024 13.556-1.554 20.05.233s12.566 6.261 14.729 12.639c1.312 3.867 1.111 8.069.747 12.137-1.362 15.238-3.558 24.418-14.675 34.929-8.845 8.363-27.422 10.931-27.422 10.931-4.326-12.157-11.278-43.4-12.728-64.426" fill="#dfdfe0"/><path d="M592.16 55.89a332.518 332.518 0 00-28.087 134.194c0 184.279 149.387 333.666 333.666 333.666 112.032 0 211.166-55.217 271.679-139.918-51.654 117.456-169.037 199.472-305.579 199.472-184.279 0-333.666-149.387-333.666-333.666A332.141 332.141 0 01592.16 55.89z" fill="#dfdfe0"/><g fill="#353d49"><path d="M726.843 368.981l13.1 17.78 18.457 3.117 10.808 19.784 231.543 65.426 5.109 83.368 16.391 9.271-7.835 37.169 53.974 169.417-89.347 117.84h421.36V422.871z"/><path d="M733.554 374.905l31.989 5.489-7.3 5.946 2.806 4.73 132.168 32.311 280.542 17.847-65.884 19.653 199 33.994h93.528v68.111l-115.978-8.26-283.671-79.64-231.543-65.426-10.809-19.784-18.459-3.117-13.1-17.778z"/><path d="M955.494 460.872l328.931 93.857 115.978 5.4v332.02H979.048l119.476-121.951 39.129 5.408-36.617-11.043-39.242-27.934-6.891-14.55 72.764 23.2 82.623 7.169-77.073-12.133-76.059-25.932 80.495 9.94 161.918 15.992-160.255-20.955-87.837-20.045-25.229-82.166-11.788-12.583 1.249-5.895 78.744 20.68-72.008-23.066-4.313-9.039 37.883 13.934 161.365 41.386 53.505 4.223-184.3-48.142 244.595 54.9-293.85-76.856 169.008 32.095-184.02-41.292-16.441-9.247-1.646-26.13 83.8 16.5-84.268-23.938-.5-7.892 65.1 12.97-65.471-18.849-.563-8.944-43.447-25.221z"/><path d="M1400.403 412.198l-428.511-43.217H726.843l6.711 5.926 31.989 5.487-7.3 5.946 2.806 4.73 132.168 32.311 286.889 16.511-129.663 10.965-97.183-4.886 1.621 7.265 329.544 101.493 115.978 5.4z"/><path d="M1208.605 751.853l-172.62-38.306-68.075 3.963-5.673 7.925 55.109 18.492 126.426 15.851z"/><path d="M962.237 725.435l26.675 28.556 40.462 19.667 27.322 44.564 33.38 17.8 55.64-57.3-1.944-18.946-126.427-15.851z"/><path d="M1202.367 871.883l-116.946-51.689-68.075-76.267 126.426 15.851z"/><path d="M1208.605 751.386l10.454 120.031h-16.692l-58.6-111.64z"/><path d="M1290.582 687.257l58.026 42.772-26.837 4.729-113-38.228z"/><path d="M1348.609 730.028l24.257 62.657-51.094-57.931z"/><path d="M1321.772 734.756l-32.7 35.7-57.013 30.14-23.289-104.07z"/><path d="M1321.771 734.756l51.094 57.928-83.793-22.226-9.019-49.815z"/></g><g transform="translate(867.21 259.01)" fill="#353d49"><ellipse cx="54.285" cy="6.404" rx="54.285" ry="6.404" transform="translate(1.788 118.647)"/><path d="M2.327 49.061a72.824 72.824 0 011.585-19.062c1.055-4.833-.517-10.177-1.794-14.957a46.641 46.641 0 00-1.7-5.012 3.4 3.4 0 01-.347-2.143c.253-.866 1.167-1.41 1.428-2.274l3.23 4.439a22.979 22.979 0 00-1.7-5.378 1.436 1.436 0 01-.186-.67 1.37 1.37 0 01.278-.641q.844-1.272 1.81-2.458a2.238 2.238 0 01.948-.786c.395-.132.449-.225.7.1l7.91 10.133a4.952 4.952 0 001.638 1.541 23.3 23.3 0 012.407.777 4.1 4.1 0 011.3 1.68l3.874 7.382a7.781 7.781 0 00.928 1.486 9.858 9.858 0 001.307 1.163 18.4 18.4 0 014.765 5.911 24.489 24.489 0 01-5.966-1.714 26.29 26.29 0 007.212 8.5 4.517 4.517 0 011.3 1.273 3.6 3.6 0 00.427.743 1.929 1.929 0 00.517.355l6.225 3.34-.94.705 8.557 3.253c2.523.959 4.365 2.823 6.944 3.619l1.489.46 11.587 3.577c8.047 2.485 16.2 5.017 23.335 9.487l-1.361.912a20.063 20.063 0 015.144 5.081c3.463 4.4 7.008 9.04 12.047 11.478 5.928 2.867 12.932 2.195 19.362.777a13.613 13.613 0 01-9.686 6.706l1.712.653a16.893 16.893 0 01-3.719 1.554c-.171-.107-.427-.1-.406.111.136-.035.271-.073.406-.111a.264.264 0 01.142.272c-.064.325-.45.457-.775.52a18.106 18.106 0 01-7.855-.216l1.375 1.272a16.58 16.58 0 01-6.867-2.35l.783 1.464a100.964 100.964 0 01-9.142-4.867c.456 4.029.766 7.816.791 10.629a12.955 12.955 0 00-.691-2.015c.059 1.453.18 2.207.245 3.588a19.982 19.982 0 001.142 5.773 45.546 45.546 0 011.6 5.5 20.348 20.348 0 01.786 4.46l-.021.373c-.145 2.515-.364 4.265-.4 6.866a7.14 7.14 0 01-.062.8 18.916 18.916 0 01-1.027 3.814s-2.273.307-4.029.444c-.492.038-.988 0-1.481.007a.62.62 0 01-.445-.116 1.227 1.227 0 01-.415-.619c-.126-1.075-.056-2.146-.182-3.221a3.754 3.754 0 01.018-1.447 4.744 4.744 0 011.051-1.616 1.76 1.76 0 00.594-1.26 30.721 30.721 0 00-.34-3.822c-.133-1.7-2.173-3.449-3.216-4.639-.105-.12-.214-.247-.324-.381q.266.274.543.533-.276-.259-.543-.533a28.08 28.08 0 01-3.156-4.345 11.127 11.127 0 00.772 1.378 3.789 3.789 0 01-2.3-1.073l.9 2.093-.995-.765a15.956 15.956 0 001.747 2.86c-.293-.237-.7-.534-.994-.772l.065.785.691 3.429a.646.646 0 01.007.335.522.522 0 01-.159.2c-1.069.99-1.473 2.692-1.748 4.3-.079.461-.156.93-.244 1.393a7.988 7.988 0 01-1.148 3.151 6.235 6.235 0 01-3.115 2.153s-3.921.434-4.926-.025a.952.952 0 01-.49-.417 1.482 1.482 0 01-.108-.6l-.076-1.92a1.654 1.654 0 01.071-.7 1.248 1.248 0 01.78-.588 5.977 5.977 0 002.626-2.214 3.5 3.5 0 00.6-1.421c.07-.473.007-.966.059-1.444a25.818 25.818 0 00.63-2.582v.006a3.707 3.707 0 01-.031-.135 7.658 7.658 0 00-.478-1.565 33.02 33.02 0 01-2.733-7.66l.758.469-.1-.084a10.144 10.144 0 00-2.014-1.217c-1.3-.624-2.689-.736-3.944-1.5a11.79 11.79 0 01-3.755-3.857 17.05 17.05 0 01-1.118-2.217c-.84-1.475-1.514-2.525-2.165-2.681-4.748-1.132-8.84-.814-15.243-4.944l-1.585-.218c.459 4.214 1.1 10.344 1.555 12.773a5.613 5.613 0 00.637-1.368 13.432 13.432 0 01-.134 3.784 1.674 1.674 0 00.624-.888 18.879 18.879 0 01-.475 2.673l.526-.68a5.6 5.6 0 01-.664 2.461 2.811 2.811 0 00-.434.982 9.818 9.818 0 00.274 1.92c.186 1.257-.4 1.471-.718 2.644a19.958 19.958 0 00-.434 4.489c-.019.92-.03 1.821-.086 2.622a12.974 12.974 0 01-1.689 5.8 2.829 2.829 0 01-1.441.961l-5.078.4c-1.206.094-1.882-3.715-.975-5.384a19.408 19.408 0 001.932-3.7 16.731 16.731 0 00.251-6.365q-.061-.666-.127-1.335a41.173 41.173 0 00-1.716-9.1 12.048 12.048 0 00-.762-1.826c-.322-.6-.709-1.128-1.061-1.7a18.9 18.9 0 01-1.772-3.895q-.132.123-.269.24a62.574 62.574 0 002.632 8.86 2.885 2.885 0 00.355-1.142 14.952 14.952 0 01.374 2.645.8.8 0 00.133-.558 14.045 14.045 0 01.076 1.767.779.779 0 00.287-.577c.371 1.374-.837 2.613-.721 4.052a6.542 6.542 0 01.126 1.194 2.485 2.485 0 01-.371.927 13.143 13.143 0 00-1.19 3.87c-.119.646-.224 1.3-.337 1.943-.356 2.025-.33 3.451-1.54 4.678a14.2 14.2 0 01-2.433 1.884.913.913 0 01-.279.067 27.94 27.94 0 01-4.435.073 1.093 1.093 0 01-.838-.456 1.947 1.947 0 01-.2-.58 15.5 15.5 0 01-.351-2.275 2.054 2.054 0 01.03-.7 1.422 1.422 0 01.473-.659c.966-.885 1.828-1.44 2.795-2.326a4.1 4.1 0 00.666-1.024 2.612 2.612 0 00.189-.732 12.385 12.385 0 01.533-3.051 3.047 3.047 0 00.141-.724c.02-.218.028-.44.036-.658.067-1.833-.8-3.509-1.462-5.156a49.11 49.11 0 01-1.937-6.524l-1.038-4.194c-4.016-5.659-6.009-17.245-6.733-18.583a4.065 4.065 0 00-1.393-1.718 1.4 1.4 0 00-1.941.432 30.793 30.793 0 01-3.21-6.1 1.887 1.887 0 01-.513 1.456 16.73 16.73 0 01-2.332-6.174l-.65 1.713a38.326 38.326 0 01-1.766-8.976l-.885 2.106q-.466-5.374-.425-10.775z"/></g></g></svg>