<svg xmlns="http://www.w3.org/2000/svg" width="60" height="60" viewBox="0 0 60 60" preserveAspectRatio="xMinYMin meet"><title>Trampar Online</title><path d="M60 40.539A19.461 19.461 0 0140.539 60H19.461A19.461 19.461 0 010 40.539V19.461A19.461 19.461 0 0119.461 0h21.078A19.461 19.461 0 0160 19.461z" fill="#0dbfba"/><path d="M42.29 19.935a1.437 1.437 0 10-2.033 2.032 14.507 14.507 0 11-20.516 0 1.437 1.437 0 10-2.032-2.032 17.323 17.323 0 1024.58 0zm0 0" fill="#09adb5"/><path d="M30 31.742c.774 0 .968-.581.968-1.452V14.516c0-.774-.194-1.452-.968-1.452s-.967.678-.967 1.452V30.29c0 .774.194 1.452.967 1.452zm0 0" fill="#09adb5"/><path d="M42.29 17.71a1.437 1.437 0 10-2.033 2.032A14.107 14.107 0 0144.516 30a14.5 14.5 0 01-4.258 10.258A14.105 14.105 0 0130 44.516a14.516 14.516 0 01-10.258-24.774 1.437 1.437 0 10-2.032-2.032 17.323 17.323 0 1024.58 0zm0 0" fill="#fff"/><path d="M36.266 13.416c0-.774-.677-.968-1.451-.968h-9.629c-.774 0-1.452.194-1.452.968s.581.967 1.452.967h9.725c.774 0 1.355-.194 1.355-.967zm0 0" fill="#09adb5"/><path d="M30 29.516c.774 0 .968-.677.968-1.451V12.387c0-.774-.194-1.452-.968-1.452s-.967.581-.967 1.452v15.774c0 .774.194 1.355.967 1.355zm0 0" fill="#fff"/><path d="M36.266 11.9c0-.774-.677-.968-1.451-.968h-9.629c-.774 0-1.452.194-1.452.968s.581.967 1.452.967h9.725c.774 0 1.355-.194 1.355-.967zm0 0" fill="#fff"/></svg>