<svg xmlns="http://www.w3.org/2000/svg" width="55.397" height="60" viewBox="0 0 55.397 60" preserveAspectRatio="xMinYMin meet"><title>WOWF</title><path d="M15.108 15.108L0 0v32.3L27.7 60V2.518z" fill="#ccc"/><path d="M55.397 0L40.289 15.108l-12.59-12.59V60l27.7-27.7z" fill="#e6e6e6"/><g fill="#ccc"><path d="M27.698 31.264l-6.3-6.3-6.3 6.3-6.3 6.3 6.3 6.3 6.3 6.3 6.3-6.3 6.3-6.3z"/><path d="M2.518 18.669v12.59l6.3-6.3z"/></g><g fill="#0a76a5"><path d="M21.403 50.145l6.294-6.294 6.295 6.294-6.295 6.294z"/><path d="M27.698 31.259l6.3-6.3-6.3-6.3-6.3-6.3-6.3 6.3-6.3-6.3-6.3-6.3v12.59l6.3 6.3-6.3 6.3 6.3 6.3 6.3-6.3 6.3-6.3z"/></g><g fill="#e6e6e6"><path d="M33.993 24.964l-6.3 6.3 6.3 6.3-6.3 6.3 6.3 6.3 6.3-6.3 6.3-6.3-6.3-6.3z"/><path d="M46.583 24.969l6.3 6.3v-12.6z"/></g><path d="M52.878 6.079l-6.3 6.3-6.3 6.3-6.3-6.3-6.3-6.3-6.3 6.3 6.3 6.3 6.3 6.3 6.3 6.3 6.3 6.3 6.3-6.3-6.3-6.3 6.3-6.3z" fill="#1795c1"/></svg>