<svg id="Layer_1" xmlns="http://www.w3.org/2000/svg" width="30" height="30" viewBox="0 0 30 30"><style>.st0{fill:#fc5}.st1{fill:#f60}.st2{fill:#fff}.st3{fill:#248}</style><path class="st0" d="M15 0C6.7 0 0 6.7 0 15c0 1.7.3 3.3.8 4.9C2.7 14.4 7.3 6 17.8 8.1c0 0 1.6.3 4.3-.9 0 0-7.4 11.9-5.3 22.7C24.3 28.9 30 22.6 30 15c0-8.3-6.7-15-15-15z"/><circle class="st1" cx="16.7" cy="13.5" r="12.8"/><path class="st2" d="M16.4 27.9C-4.9 17.1 7.3 4.7 7.3 4.7s1.5 15.1 17.6 4.9c0 0-18.4 9.4-9.7 18.3"/><path class="st3" d="M16.4 27.9C-5.2 16.8 7.3 4.7 7.3 4.7s-5.8 12.8 13 10.1c0 0-13.7 4.2-5 13.1"/><path class="st3" d="M17.8 8.1C7.3 6 2.7 14.4.8 19.9 2.8 25.8 8.4 30 15 30c.6 0 1.3 0 1.9-.1-2.1-10.8 4-22 4-22-1.6.5-3.1.2-3.1.2z"/><path class="st2" d="M21.4 12.1s-2.1 1.3-1.8 2.4c0 0 .1.8 2.5-.5l2.1-1.2s.7-.3.6.6c-.2 1-.5 1.8-.6 2.3-.1.3-.6.5-.6.5-1.5.8-2.8 1.5-3.8 2.4-4.8 4.5-4.3 11.2-4.3 11.2C6.4 12.3 20.9 8 24.1 6.2c.8-.5 1 .2 1 .2.2.8.2 1.5.2 2.3 0 0 0 .5-.3.8-.1.2-3.6 2.6-3.6 2.6z"/></svg>