<?xml version="1.0" encoding="utf-8"?>
<!-- Generator: Adobe Illustrator 17.0.0, SVG Export Plug-In . SVG Version: 6.00 Build 0)  -->
<!DOCTYPE svg PUBLIC "-//W3C//DTD SVG 1.1//EN" "http://www.w3.org/Graphics/SVG/1.1/DTD/svg11.dtd">
<svg version="1.1" id="Layer_1" xmlns="http://www.w3.org/2000/svg" xmlns:xlink="http://www.w3.org/1999/xlink" x="0px" y="0px"
	 width="47.1419106px" height="15px" viewBox="0 0 47.1419106 15" style="enable-background:new 0 0 47.1419106 15;"
	 xml:space="preserve">
<style type="text/css">
	.st0{fill:#353D49;}
	.st1{fill:#0090D8;}
</style>
<g>
	<path class="st0" d="M5.5563879,12.6736393c-0.0902057-0.2556-0.1479249-0.6341982-0.1729541-1.1353865
		c-0.3157711,0.4110851-0.717968,0.7281837-1.2066932,0.9510937c-0.4887252,0.222909-1.006361,0.3346701-1.5527034,0.3346701
		c-0.7819195,0-1.4147899-0.2180052-1.8985093-0.6542215C0.2418086,11.7337837,0,11.182333,0,10.5156488
		c0-0.7919312,0.3295625-1.4184675,0.9886877-1.8797121c0.6591251-0.4611425,1.5777321-0.6917138,2.7557192-0.6917138h1.6315696
		V7.0193844c0-0.5813828-0.1792879-1.0387454-0.5376592-1.37219C4.4799461,5.3139539,3.9574068,5.1472316,3.270699,5.1472316
		c-0.6266389,0-1.1455007,0.160491-1.5563812,0.4811659C1.303233,5.9492764,1.0977927,6.3351283,1.0977927,6.7862592
		L0.1955309,6.7788014c0-0.6466618,0.3007539-1.2067957,0.9022619-1.6805034
		c0.6014056-0.4736056,1.3407251-0.7105107,2.217958-0.7105107c0.9072673,0,1.6227839,0.2268934,2.1466515,0.6804762
		c0.5237656,0.4536848,0.7932591,1.086453,0.8082762,1.898509v3.8496299c0,0.7870274,0.0827484,1.3760719,0.2481422,1.7669296
		v0.0903072H5.5563879z M2.7293622,12.0269775c0.6015079,0,1.1390648-0.1452684,1.6127727-0.4360113
		c0.4737077-0.2907419,0.8181853-0.6792498,1.0338416-1.1655235v-1.789506H3.7668817
		c-0.8972561,0.0101137-1.5989811,0.17418-2.1052775,0.4925051s-0.7593424,0.7556648-0.7593424,1.3120184
		c0,0.4561367,0.169174,0.8346329,0.5075223,1.1353865C1.7481322,11.8766012,2.1879234,12.0269775,2.7293622,12.0269775z"/>
	<path class="st0" d="M10.2344494,12.6736393H9.325139V2.3143833h0.9093103V12.6736393z"/>
	<path class="st1" d="M11.9661646,15v-1.5863132h1.8326168V1.5553596h-1.8326168V0h3.557457v15H11.9661646z"/>
	<path class="st1" d="M16.7548332,6.6335807c0.8832188,0,1.5493336-0.3873334,1.5493336-1.4407811V2.9927709
		c0-2.0296962,1.1465797-2.990217,3.0057392-2.990217h0.4802589v1.5647525H21.325325
		c-0.7590427,0-1.2859707,0.3563919-1.2859707,1.3788983v2.6028838c0,0.9760427-0.5731888,1.6887236-1.5647526,1.9521885
		c0.9915638,0.2478399,1.5647526,0.9605207,1.5647526,1.9520855v2.5873623c0,1.0226088,0.5269279,1.3945227,1.2859707,1.3945227
		h0.4648399V15H21.309906c-1.8591595,0-3.0057392-0.9761457-3.0057392-3.0057392V9.7942324
		c0-1.0535507-0.6661148-1.4408836-1.5493336-1.4408836V6.6335807z"/>
	<path class="st0" d="M25.0316963,2.4554636v2.0827005h1.6841812v0.7368674h-1.6841812v5.4270558
		c0,0.4517441,0.0813179,0.7879467,0.2443619,1.0088129c0.1626358,0.2208662,0.4347858,0.3311968,0.8156319,0.3311968
		c0.1503773,0,0.3935127-0.0251303,0.7294102-0.0751886l0.0375938,0.7304316
		c-0.2357807,0.084383-0.5563545,0.1266766-0.9623318,0.1266766c-0.6166267,0-1.0653057-0.1791859-1.3460369-0.5375566
		s-0.4208908-0.8859167-0.4208908-1.58284V5.2750316h-1.4964142V4.5381641h1.4964142V2.4554636H25.0316963z"/>
	<path class="st0" d="M31.827877,12.8240166c-0.6918163,0-1.3170261-0.1703997-1.8760357-0.511404
		c-0.5588055-0.3408003-0.9937954-0.8156319-1.3043556-1.4248018c-0.3109703-0.6089649-0.4662514-1.291893-0.4662514-2.0488853
		V8.5155945c0-0.78192,0.1516037-1.4860969,0.4548092-2.1127353c0.3032055-0.6265368,0.7257328-1.1190419,1.2669659-1.4774132
		c0.5414391-0.3583708,1.1278286-0.5376587,1.7593708-0.5376587c0.9874611,0,1.7708092,0.3372245,2.3496399,1.0112648
		c0.5790329,0.6742444,0.8685493,1.5953031,0.8685493,2.7631764v0.5037422h-5.8046322v0.1729546
		c0,0.9223862,0.2643852,1.6906166,0.7933598,2.3044853c0.5287724,0.6140738,1.1940269,0.9211617,1.9961739,0.9211617
		c0.481163,0,0.9059372-0.0876522,1.2743225-0.2631598c0.3685875-0.1755075,0.7030525-0.4560347,1.0038071-0.8421926
		l0.5639114,0.4286556C34.0459366,12.3453035,33.0860558,12.8240166,31.827877,12.8240166z M31.6623802,5.1546893
		c-0.6766968,0-1.2469444,0.2481422-1.7105389,0.7444272c-0.4635944,0.4961829-0.7455502,1.1628675-0.8458691,1.9999523h4.8796921
		V7.8013034c-0.0251312-0.781919-0.2480431-1.4184675-0.6691399-1.9097466
		C32.8954315,5.4003801,32.3439789,5.1546893,31.6623802,5.1546893z"/>
	<path class="st0" d="M37.1001625,2.1885242c0-0.1693785,0.0551643-0.3126043,0.1654968-0.4295756
		c0.1101265-0.1170734,0.2605019-0.1757122,0.4511299-0.1757122c0.1904221,0,0.3420258,0.0586388,0.4548073,0.1757122
		c0.1127853,0.1169713,0.1691742,0.260197,0.1691742,0.4295756c0,0.1694806-0.0563889,0.3113782-0.1691742,0.4258978
		c-0.1127815,0.1146214-0.2643852,0.1718302-0.4548073,0.1718302c-0.1906281,0-0.3410034-0.0572088-0.4511299-0.1718302
		C37.1553268,2.4999025,37.1001625,2.3580048,37.1001625,2.1885242z M38.1603622,12.6736393h-0.9022636V4.5381641h0.9022636
		V12.6736393z"/>
	<path class="st0" d="M46.1795807,12.6736393c-0.0903091-0.2556-0.1479263-0.6341982-0.1728516-1.1353865
		c-0.315876,0.4110851-0.718174,0.7281837-1.2068977,0.9510937c-0.4887276,0.222909-1.0062599,0.3346701-1.5526009,0.3346701
		c-0.7819214,0-1.4148941-0.2180052-1.89851-0.6542215c-0.4838219-0.4360113-0.7255287-0.987462-0.7255287-1.6541462
		c0-0.7919312,0.3295631-1.4184675,0.9886894-1.8797121c0.6591225-0.4611425,1.5777321-0.6917138,2.7556152-0.6917138h1.6316719
		V7.0193844c0-0.5813828-0.17939-1.0387454-0.5375557-1.37219c-0.3585777-0.3332405-0.8810158-0.4999628-1.5677223-0.4999628
		c-0.6266365,0-1.1453972,0.160491-1.5564842,0.4811659c-0.4110832,0.320879-0.6164207,0.7067308-0.6164207,1.1578617
		l-0.9022636-0.0074577c0-0.6466618,0.3007545-1.2067957,0.9022636-1.6805034
		c0.6015053-0.4736056,1.3407249-0.7105107,2.2180595-0.7105107c0.9071655,0,1.6226807,0.2268934,2.1465492,0.6804762
		c0.5236626,0.4536848,0.7931557,1.086453,0.8082771,1.898509v3.8496299c0,0.7870274,0.0827484,1.3760719,0.2480392,1.7669296
		v0.0903072H46.1795807z M43.3524513,12.0269775c0.6015091,0,1.1390648-0.1452684,1.6128769-0.4360113
		c0.4736023-0.2907419,0.8182869-0.6792498,1.0338402-1.1655235v-1.789506h-1.6089935
		c-0.8973579,0.0101137-1.5991859,0.17418-2.105278,0.4925051c-0.5062943,0.318325-0.7594414,0.7556648-0.7594414,1.3120184
		c0,0.4561367,0.1691704,0.8346329,0.5075188,1.1353865C42.3713226,11.8766012,42.8112183,12.0269775,43.3524513,12.0269775z"/>
</g>
</svg>
