<svg id="Layer_1" xmlns="http://www.w3.org/2000/svg" width="30" height="30" viewBox="0 0 30 30"><style>.st0{fill:#50abf1}.st1{fill:#fff}</style><path class="st0" d="M0 0v30h30V0H0zm23.8 10.8v.5c0 7.1-5.8 12.9-12.9 12.9-2.5 0-4.9-.7-6.9-2 3.9.6 6.7-1.9 6.7-1.9-3.5-.3-4.2-3.2-4.2-3.2 1.2.2 2-.1 2-.1-3.9-.9-3.6-4.5-3.6-4.5.9.5 2 .6 2 .6-3.5-3-1.3-6-1.3-6 3.6 4.4 9 4.7 9.3 4.7-.1-.3-.1-.7-.1-1 0-2.5 2-4.5 4.5-4.5 1.3 0 2.5.6 3.3 1.4.2-.1.5-.1.7-.2 1.3-.4 2.2-.9 2.2-.9-.2 1.3-1.9 2.4-2 2.5 1.2-.1 2.5-.6 2.5-.6-.4.8-2 2.1-2.2 2.3z"/><path class="st1" d="M23.5 9.2c.1-.1 1.8-1.2 2-2.5 0 0-.9.5-2.2.9-.2.1-.4.1-.7.2-.8-.9-2-1.4-3.3-1.4-2.5 0-4.5 2-4.5 4.5 0 .4 0 .7.1 1-.3 0-5.7-.3-9.3-4.7 0 0-2.2 3 1.3 6 0 0-1.1 0-2-.6 0 0-.3 3.6 3.6 4.5 0 0-.8.3-2 .1 0 0 .7 2.9 4.2 3.2 0 0-2.8 2.5-6.7 1.9 2 1.3 4.4 2 6.9 2 7.1 0 12.9-5.8 12.9-12.9v-.5c.3-.2 1.9-1.5 2.2-2.3 0-.1-1.3.4-2.5.6z"/></svg>